HIERARCHY
ROOT Hips
{
	OFFSET 47.716000 -34.127014 99.160095
	CHANNELS 6 Xposition Yposition Zposition Xrotation Yrotation Zrotation
	JOINT spine
	{
		OFFSET 0.000000 -0.477356 8.301041
		CHANNELS 3 Xrotation Yrotation Zrotation
		JOINT spine1
		{
			OFFSET 0.000000 0.000000 10.456497
			CHANNELS 3 Xrotation Yrotation Zrotation
			JOINT spine2
			{
				OFFSET 0.000000 0.000000 10.019203
				CHANNELS 3 Xrotation Yrotation Zrotation
				JOINT Neck
				{
					OFFSET 0.000000 -1.226418 25.723503
					CHANNELS 3 Xrotation Yrotation Zrotation
					JOINT Head
					{
						OFFSET 0.000000 0.000000 7.771744
						CHANNELS 3 Xrotation Yrotation Zrotation
						End Site
						{
							OFFSET 0.000000 6.203938 18.811996
						}
					}
				}
				JOINT RightShoulder
				{
					OFFSET -4.218800 0.587437 10.820000
					CHANNELS 3 Xrotation Yrotation Zrotation
					JOINT RightArm
					{
						OFFSET 0.000000 -0.000004 14.191406
						CHANNELS 3 Xrotation Yrotation Zrotation
						JOINT RightArmRoll
						{
							OFFSET 0.000000 0.000000 7.164093
							CHANNELS 3 Xrotation Yrotation Zrotation
							JOINT RightForeArm
							{
								OFFSET 0.000000 -0.000004 20.866501
								CHANNELS 3 Xrotation Yrotation Zrotation
								JOINT RightForeArmRoll
								{
									OFFSET 0.000000 0.000000 8.039215
									CHANNELS 3 Xrotation Yrotation Zrotation
									JOINT RightHand
									{
										OFFSET 0.000000 -0.000004 16.132996
										CHANNELS 3 Xrotation Yrotation Zrotation
										End Site
										{
											OFFSET 0.000000 0.000000 0.100006
										}
									}
								}
							}
						}
					}
				}
				JOINT LeftShoulder
				{
					OFFSET 4.218800 0.587437 10.820000
					CHANNELS 3 Xrotation Yrotation Zrotation
					JOINT LeftArm
					{
						OFFSET 0.000000 -0.000004 14.191406
						CHANNELS 3 Xrotation Yrotation Zrotation
						JOINT LeftArmRoll
						{
							OFFSET 0.000000 0.000000 7.164093
							CHANNELS 3 Xrotation Yrotation Zrotation
							JOINT LeftForeArm
							{
								OFFSET 0.000000 -0.000004 20.866501
								CHANNELS 3 Xrotation Yrotation Zrotation
								JOINT LeftForeArmRoll
								{
									OFFSET 0.000000 0.000000 8.039215
									CHANNELS 3 Xrotation Yrotation Zrotation
									JOINT LeftHand
									{
										OFFSET 0.000000 -0.000004 16.132996
										CHANNELS 3 Xrotation Yrotation Zrotation
										End Site
										{
											OFFSET 0.000000 0.000000 0.100006
										}
									}
								}
							}
						}
					}
				}
			}
		}
	}
	JOINT RightUpLeg
	{
		OFFSET -7.357731 1.131821 -1.349213
		CHANNELS 3 Xrotation Yrotation Zrotation
		JOINT RightUpLegRoll
		{
			OFFSET 0.000000 -0.000004 18.916801
			CHANNELS 3 Xrotation Yrotation Zrotation
			JOINT RightLeg
			{
				OFFSET 0.000000 0.000004 -23.425598
				CHANNELS 3 Xrotation Yrotation Zrotation
				JOINT RightLegRoll
				{
					OFFSET 0.000000 -0.000004 23.502304
					CHANNELS 3 Xrotation Yrotation Zrotation
					JOINT RightFoot
					{
						OFFSET 0.000000 -0.000004 19.561714
						CHANNELS 3 Xrotation Yrotation Zrotation
						JOINT RightToeBase
						{
							OFFSET 0.000000 -0.000004 16.352600
							CHANNELS 3 Xrotation Yrotation Zrotation
							End Site
							{
								OFFSET 0.006931 0.912838 7.919434
							}
						}
					}
				}
			}
		}
	}
	JOINT LeftUpLeg
	{
		OFFSET 7.357731 1.131821 -1.349213
		CHANNELS 3 Xrotation Yrotation Zrotation
		JOINT LeftUpLegRoll
		{
			OFFSET 0.000000 -0.000004 18.916901
			CHANNELS 3 Xrotation Yrotation Zrotation
			JOINT LeftLeg
			{
				OFFSET 0.000000 -0.000004 23.425507
				CHANNELS 3 Xrotation Yrotation Zrotation
				JOINT LeftLegRoll
				{
					OFFSET 0.000000 -0.000004 23.719498
					CHANNELS 3 Xrotation Yrotation Zrotation
					JOINT LeftFoot
					{
						OFFSET 0.000000 -0.000004 19.344406
						CHANNELS 3 Xrotation Yrotation Zrotation
						JOINT LeftToeBase
						{
							OFFSET 0.000000 -0.000004 16.352600
							CHANNELS 3 Xrotation Yrotation Zrotation
							End Site
							{
								OFFSET -0.031063 0.912838 7.919434
							}
						}
					}
				}
			}
		}
	}
}
MOTION
Frames: 10
Frame Time: 0.041667
49.498501 -0.212215 51.500782 -28.596173 0.314865 0.212764 3.457267 -0.224785 -0.014718 10.889348 -0.457841 -0.025348 12.534405 -0.457882 -0.019787 25.558665 1.576435 -1.419290 -3.418327 0.599283 -1.356954 -5.763519 -74.240161 -8.048446 80.472374 -79.434315 63.490276 -0.000000 0.000012 0.000003 84.790699 -7.912464 1.479884 0.000004 -0.000000 -3.008023 -4.999829 -7.999200 0.000049 0.707255 64.728118 -0.073426 -46.715489 98.016165 57.608138 -0.000000 0.000001 -0.000000 73.695371 6.993759 -2.257105 0.000016 -0.000010 2.999992 -4.999751 7.999288 -0.000025 -65.856834 -163.622591 8.339238 179.999991 0.000003 -1.534997 77.122186 4.555613 3.325292 -0.000007 0.000001 2.052702 73.868653 8.199593 -2.127992 25.456921 -7.355199 0.005413 -66.157513 159.839554 -8.823530 -0.000005 -0.000004 -1.670919 -106.273550 -5.438444 -6.200146 -0.000003 0.000002 -2.802439 76.098505 -8.030056 2.034959 26.954373 7.345734 -0.192093 
49.501801 -0.212101 51.497780 -28.588580 0.317101 0.215412 3.455061 -0.224056 -0.015451 10.887047 -0.456195 -0.025946 12.532103 -0.456260 -0.020409 25.597631 1.549530 -1.420566 -3.442839 0.602252 -1.359439 -5.761029 -74.263930 -8.047565 80.590495 -79.416495 63.653880 -0.000000 0.000011 0.000001 84.767340 -7.921233 1.484161 0.000004 -0.000001 -3.008019 -4.999831 -7.999198 0.000047 0.738996 64.730058 -0.109253 -46.489816 98.041635 57.317062 0.000000 -0.000001 -0.000000 73.654301 6.996527 -2.254848 0.000013 -0.000011 2.999988 -4.999751 7.999290 -0.000026 -65.865092 -163.620160 8.340238 179.999991 0.000007 -1.534998 77.117917 4.554918 3.324988 -0.000008 0.000000 2.052720 73.871262 8.199636 -2.127475 25.456924 -7.355198 0.005412 -66.167765 159.845114 -8.818417 -0.000006 -0.000005 -1.670901 -106.278495 -5.438494 -6.201392 -0.000002 0.000003 -2.802450 76.104215 -8.028676 2.032735 26.951547 7.345730 -0.191768 
49.500999 -0.214474 51.497284 -28.580588 0.319504 0.218345 3.452677 -0.223287 -0.016265 10.884446 -0.454476 -0.026645 12.529603 -0.454565 -0.021134 25.635580 1.520624 -1.421575 -3.466230 0.606648 -1.361945 -5.759183 -74.288990 -8.047465 80.701588 -79.399330 63.811370 -0.000001 0.000010 0.000002 84.744561 -7.929880 1.488081 0.000003 0.000002 -3.008020 -4.999832 -7.999198 0.000046 0.770218 64.730898 -0.144629 -46.258098 98.067153 57.020137 -0.000000 0.000000 -0.000002 73.612555 6.999452 -2.252821 0.000014 -0.000011 2.999989 -4.999751 7.999286 -0.000026 -65.873780 -163.617414 8.341326 179.999991 0.000004 -1.534999 77.113491 4.554124 3.324576 -0.000007 0.000001 2.052750 73.874049 8.199584 -2.126784 25.456924 -7.355199 0.005414 -66.178174 159.851439 -8.814419 -0.000005 -0.000006 -1.670860 -106.283645 -5.438910 -6.201703 -0.000004 0.000002 -2.802472 76.110499 -8.027282 2.030853 26.948308 7.345733 -0.191401 
49.504601 -0.218506 51.498482 -28.572194 0.322026 0.221476 3.450172 -0.222489 -0.017137 10.881742 -0.452703 -0.027417 12.526899 -0.452820 -0.021932 25.673015 1.490301 -1.422383 -3.488855 0.612045 -1.364466 -5.757722 -74.314931 -8.047869 80.807531 -79.382692 63.964353 -0.000000 0.000010 0.000001 84.722233 -7.938445 1.491833 0.000004 0.000000 -3.008021 -4.999831 -7.999196 0.000046 0.801074 64.730932 -0.179687 -46.021992 98.092814 56.718953 0.000001 0.000000 -0.000001 73.570420 7.002502 -2.250947 0.000015 -0.000010 2.999989 -4.999750 7.999286 -0.000025 -65.882564 -163.614736 8.343090 179.999991 0.000005 -1.535000 77.108929 4.553225 3.324059 -0.000008 -0.000000 2.052791 73.876883 8.199617 -2.126186 25.456926 -7.355200 0.005414 -66.189171 159.857545 -8.809651 -0.000005 -0.000006 -1.670830 -106.288877 -5.439056 -6.202973 -0.000004 0.000002 -2.802489 76.117199 -8.025816 2.028808 26.944980 7.345730 -0.191035 
49.499901 -0.216122 51.501480 -28.563704 0.324616 0.224721 3.447595 -0.221675 -0.018042 10.878943 -0.450901 -0.028229 12.524094 -0.451046 -0.022773 25.710038 1.459182 -1.423060 -3.511046 0.618014 -1.367002 -5.756515 -74.341480 -8.048580 80.911165 -79.366368 64.115314 0.000000 0.000009 0.000001 84.700124 -7.947002 1.495398 0.000004 0.000004 -3.008021 -4.999830 -7.999199 0.000045 0.831723 64.730563 -0.214566 -45.784278 98.118598 56.416318 0.000000 -0.000000 -0.000001 73.528018 7.005629 -2.249144 0.000013 -0.000012 2.999987 -4.999752 7.999289 -0.000026 -65.891347 -163.612059 8.345349 179.999991 0.000005 -1.534997 77.104257 4.552294 3.323641 -0.000008 0.000000 2.052833 73.879807 8.199605 -2.125505 25.456926 -7.355202 0.005414 -66.200434 159.863829 -8.804791 -0.000005 -0.000005 -1.670780 -106.294204 -5.439223 -6.203255 -0.000003 0.000003 -2.802510 76.124036 -8.024392 2.026968 26.941439 7.345728 -0.190647 
49.500900 -0.215763 51.503479 -28.555108 0.327224 0.227993 3.445002 -0.220856 -0.018954 10.876136 -0.449091 -0.029052 12.521291 -0.449265 -0.023622 25.746975 1.427856 -1.423671 -3.533120 0.624127 -1.369526 -5.755377 -74.368131 -8.049370 81.013393 -79.350071 64.265052 0.000000 0.000011 -0.000001 84.678097 -7.955475 1.498971 0.000005 0.000002 -3.008019 -4.999831 -7.999200 0.000046 0.862319 64.730085 -0.249398 -45.547171 98.144518 56.114215 -0.000000 -0.000000 0.000000 73.485527 7.008792 -2.247423 0.000014 -0.000010 2.999991 -4.999750 7.999287 -0.000024 -65.900568 -163.609067 8.346713 179.999991 0.000007 -1.534999 77.099578 4.551359 3.323124 -0.000006 0.000000 2.052869 73.882730 8.199595 -2.124820 25.456924 -7.355199 0.005412 -66.212018 159.869730 -8.799065 -0.000004 -0.000005 -1.670739 -106.299539 -5.439396 -6.204534 -0.000004 0.000002 -2.802528 76.130894 -8.022992 2.025025 26.937807 7.345729 -0.190245 
49.508202 -0.215649 51.496487 -28.546617 0.329798 0.231208 3.442450 -0.220046 -0.019850 10.873334 -0.447296 -0.029853 12.518487 -0.447497 -0.024452 25.784024 1.396935 -1.424288 -3.555412 0.629958 -1.372049 -5.754122 -74.394571 -8.050015 81.116023 -79.333467 64.415022 -0.000001 0.000010 -0.000000 84.655987 -7.963998 1.502630 0.000004 0.000001 -3.008022 -4.999830 -7.999197 0.000047 0.893019 64.729812 -0.284321 -45.313227 98.170541 55.815288 -0.000000 0.000000 -0.000001 73.443132 7.011913 -2.245621 0.000014 -0.000011 2.999989 -4.999754 7.999288 -0.000027 -65.909365 -163.606404 8.348871 179.999991 0.000006 -1.534998 77.095009 4.550434 3.322602 -0.000008 0.000001 2.052910 73.885565 8.199628 -2.124221 25.456923 -7.355201 0.005414 -66.223171 159.875959 -8.794356 -0.000005 -0.000002 -1.670699 -106.304866 -5.439564 -6.205816 -0.000004 0.000002 -2.802560 76.137655 -8.021612 2.023178 26.934368 7.345727 -0.189864 
49.498901 -0.214451 51.494183 -28.538327 0.332290 0.234279 3.439981 -0.219256 -0.020705 10.870630 -0.445539 -0.030603 12.515783 -0.445767 -0.025228 25.821687 1.367017 -1.424988 -3.578259 0.635077 -1.374547 -5.752582 -74.420327 -8.050300 81.221830 -79.316514 64.567704 -0.000001 0.000008 0.000001 84.633516 -7.972601 1.506357 0.000004 0.000001 -3.008021 -4.999830 -7.999194 0.000048 0.923979 64.730017 -0.319470 -45.084245 98.196769 55.521204 0.000001 -0.000001 -0.000000 73.401051 7.014945 -2.243644 0.000014 -0.000009 2.999988 -4.999749 7.999288 -0.000023 -65.918415 -163.603316 8.349580 179.999991 0.000006 -1.534998 77.090467 4.549573 3.322087 -0.000008 0.000000 2.052939 73.888385 8.199628 -2.123526 25.456924 -7.355198 0.005413 -66.233827 159.882475 -8.790465 -0.000005 -0.000005 -1.670660 -106.310002 -5.439978 -6.206138 -0.000004 0.000003 -2.802580 76.144247 -8.020160 2.021225 26.931030 7.345727 -0.189500 
49.478600 -0.212769 51.522682 -28.530434 0.334649 0.237122 3.437658 -0.218498 -0.021495 10.868229 -0.443840 -0.031271 12.513382 -0.444093 -0.025922 25.859974 1.338711 -1.425839 -3.601981 0.639058 -1.377023 -5.750491 -74.444984 -8.049902 81.331564 -79.298947 64.723556 -0.000000 0.000012 -0.000000 84.610608 -7.981260 1.510445 0.000004 -0.000001 -3.008024 -4.999830 -7.999195 0.000047 0.955367 64.731117 -0.354992 -44.862680 98.223134 55.234463 0.000001 0.000001 -0.000000 73.359558 7.017841 -2.241622 0.000015 -0.000009 2.999989 -4.999752 7.999287 -0.000023 -65.926748 -163.600967 8.351346 179.999991 0.000007 -1.534998 77.086061 4.548795 3.321776 -0.000008 -0.000000 2.052971 73.891097 8.199648 -2.122922 25.456924 -7.355198 0.005414 -66.244406 159.888294 -8.785454 -0.000005 -0.000004 -1.670631 -106.315152 -5.440089 -6.207399 -0.000003 0.000003 -2.802590 76.150394 -8.018739 2.019136 26.927906 7.345728 -0.189150 
49.487000 -0.216721 51.517090 -28.523037 0.336823 0.239651 3.435516 -0.217785 -0.022195 10.866023 -0.442224 -0.031826 12.511079 -0.442500 -0.026502 25.899292 1.312598 -1.426909 -3.626937 0.641475 -1.379470 -5.747702 -74.468146 -8.048645 81.447629 -79.280314 64.884769 -0.000000 0.000009 0.000002 84.586996 -7.990141 1.514775 0.000004 0.000002 -3.008020 -4.999830 -7.999197 0.000048 0.987342 64.733514 -0.391027 -44.650757 98.249648 54.957044 0.000000 0.000003 -0.000001 73.318775 7.020523 -2.239274 0.000014 -0.000011 2.999989 -4.999750 7.999284 -0.000027 -65.934555 -163.598849 8.352923 179.999991 0.000006 -1.534999 77.081813 4.548182 3.321475 -0.000007 0.000000 2.052989 73.893774 8.199584 -2.122328 25.456924 -7.355200 0.005412 -66.254146 159.894141 -8.781280 -0.000005 -0.000006 -1.670610 -106.320009 -5.440415 -6.207671 -0.000003 0.000001 -2.802601 76.155885 -8.017373 2.016791 26.925174 7.345725 -0.188831 
